<svg width="24" height="24" viewBox="0 0 24 24" fill="none" xmlns="http://www.w3.org/2000/svg">
<g clip-path="url(#clip0_2970_10566)">
<circle cx="12" cy="12" r="12" fill="white"/>
<path d="M12 0C5.38323 0 0 5.38323 0 12C0 18.6163 5.38323 24 12 24C18.6163 24 24 18.6163 24 12C24 5.38323 18.6173 0 12 0ZM14.9843 12.4225H13.032V19.381H10.139C10.139 19.381 10.139 15.5788 10.139 12.4225H8.76388V9.9631H10.139V8.37235C10.139 7.23306 10.6804 5.45283 13.0586 5.45283L15.2023 5.46105V7.84838C15.2023 7.84838 13.8996 7.84838 13.6463 7.84838C13.3931 7.84838 13.0329 7.97503 13.0329 8.51833V9.96359H15.2371L14.9843 12.4225Z" fill="#7F7F7F"/>
</g>
<defs>
<clipPath id="clip0_2970_10566">
<rect width="24" height="24" fill="white"/>
</clipPath>
</defs>
</svg>
