<svg width="24" height="24" viewBox="0 0 24 24" fill="none" xmlns="http://www.w3.org/2000/svg">
<g clip-path="url(#clip0_2970_10558)">
<path fill-rule="evenodd" clip-rule="evenodd" d="M12 0C18.6274 0 24 5.37258 24 12C24 18.6274 18.6274 24 12 24C5.37258 24 0 18.6274 0 12C0 5.37258 5.37258 0 12 0Z" fill="#7F7F7F"/>
<path d="M14.9363 7.38501H16.502L13.0814 11.2947L17.1056 16.6148H13.9546L11.4867 13.3881L8.66289 16.6148H7.09619L10.7549 12.433L6.89453 7.38501H10.1253L12.3561 10.3342L14.9363 7.38501ZM14.3867 15.6776H15.2544L9.65397 8.27301H8.72303L14.3867 15.6776Z" fill="white"/>
</g>
<defs>
<clipPath id="clip0_2970_10558">
<rect width="24" height="24" fill="white"/>
</clipPath>
</defs>
</svg>
