<?xml version="1.0" encoding="utf-8"?>
<!-- Generator: Adobe Illustrator 24.0.2, SVG Export Plug-In . SVG Version: 6.00 Build 0)  -->
<svg version="1.1" xmlns="http://www.w3.org/2000/svg" xmlns:xlink="http://www.w3.org/1999/xlink" x="0px" y="0px"
	 viewBox="0 0 395.5 395.5" style="enable-background:new 0 0 395.5 395.5;" xml:space="preserve">
<style type="text/css">
	.st0{fill-rule:evenodd;clip-rule:evenodd;fill:#FC408B;}
	.st1{fill-rule:evenodd;clip-rule:evenodd;fill:#6D6F6B;}
</style>
<g id="Layer_1">
	<g>
		<path class="st0" d="M160.4,150.9h-4.7c-11.7,0-21.3,9.6-21.3,21.3l0,0c0,11.7,9.6,21.3,21.3,21.3h27.2c1.4,0,2.8-0.1,4.1-0.4
			h-0.1v0c7.8-1.5,14.2-7.4,16.4-15c-2.8-2-4.7-5.2-4.7-8.9c0-6,4.9-10.9,10.9-10.9c6,0,10.9,4.9,10.9,10.9c0,4.4-2.6,8.2-6.4,9.9
			c0,0.2-0.1,0.4-0.1,0.6h0.1c-3.4,13.8-16,24.2-30.8,24.2h-27.4c-17.5,0-31.8-14.3-31.8-31.8l0,0c0-15.9,11.8-29.1,27-31.4
			l-0.1-0.1c6.7-30.5,42.8-37.1,62.3-15.3C181.1,114.5,162.4,122.3,160.4,150.9L160.4,150.9z M208.1,163.1v4.7h-4.7v2.8h4.7v4.7h2.8
			v-4.7h4.7v-2.8h-4.7v-4.7H208.1z"/>
		<path class="st1" d="M242.3,148.4c14.5,0.1,26.3,12,26.3,26.6v0c0,14.6-12,26.6-26.6,26.6c-10.1,0-17.4-2.1-25.2-9.3h24
			c9.5,0,17.2-7.8,17.2-17.2v0c0-9.5-7.8-17.2-17.2-17.2h-5.3l0,0c-3.9-9.3-13.1-15.9-23.8-15.9c-11.6,0-21.4,7.6-24.6,18.1
			c3.2,1.9,5.3,5.4,5.3,9.3c0,6-4.9,10.9-10.9,10.9c-6,0-10.9-4.9-10.9-10.9c0-4.2,2.4-7.9,5.9-9.7c3.6-16.1,18-28.1,35.2-28.1
			C224.6,131.5,235.9,138.2,242.3,148.4L242.3,148.4z M187.6,167.8h-12.2v2.8h12.2V167.8z"/>
	</g>
	<g>
		<path d="M58,258.1v-25.5h9.7c1.8,0,3.4,0.3,4.6,0.9c1.2,0.6,2.1,1.4,2.7,2.4s0.9,2.1,0.9,3.4c0,1-0.2,1.9-0.6,2.7
			c-0.4,0.7-0.9,1.3-1.6,1.8c-0.7,0.5-1.4,0.8-2.3,1v0.2c0.9,0,1.8,0.3,2.6,0.8s1.5,1.2,2,2.1s0.8,2,0.8,3.3c0,1.3-0.3,2.5-1,3.5
			c-0.6,1-1.6,1.9-2.9,2.5c-1.3,0.6-2.9,0.9-4.8,0.9H58z M62.6,243.5h4.6c0.8,0,1.5-0.1,2.2-0.4c0.6-0.3,1.1-0.7,1.5-1.3
			c0.4-0.5,0.6-1.2,0.6-1.9c0-1-0.3-1.8-1-2.4c-0.7-0.6-1.7-1-3.1-1h-4.7V243.5z M62.6,254.3h5c1.7,0,2.9-0.3,3.6-1
			c0.7-0.6,1.1-1.5,1.1-2.5c0-0.8-0.2-1.4-0.6-2c-0.4-0.6-0.9-1.1-1.6-1.4c-0.7-0.4-1.5-0.5-2.5-0.5h-5.1V254.3z"/>
		<path d="M96.5,258.1h-4.9l9-25.5h5.7l9,25.5h-4.9l-6.8-20.2h-0.2L96.5,258.1z M96.7,248.2h13.4v3.7H96.7V248.2z"/>
		<path d="M126.7,236.6v-3.9H147v3.9h-7.9v21.6h-4.6v-21.6H126.7z"/>
		<path d="M162,236.6v-3.9h20.3v3.9h-7.9v21.6h-4.6v-21.6H162z"/>
		<path d="M198.5,258.1v-25.5H215v3.9h-11.9v6.9h11.1v3.9h-11.1v6.9h12v3.9H198.5z"/>
		<path d="M232,258.1v-25.5h9.5c2,0,3.6,0.3,4.9,1c1.3,0.7,2.3,1.6,3,2.9c0.7,1.2,1,2.6,1,4.3c0,1.6-0.3,3-1,4.2s-1.7,2.1-3.1,2.8
			c-1.3,0.7-3,1-4.9,1h-6.8V245h6.2c1.1,0,2.1-0.2,2.8-0.5s1.3-0.8,1.6-1.4s0.5-1.4,0.5-2.3s-0.2-1.7-0.5-2.3
			c-0.4-0.6-0.9-1.1-1.6-1.5c-0.7-0.3-1.7-0.5-2.8-0.5h-4.2v21.6H232z M245.1,246.6l6.3,11.5h-5.1l-6.2-11.5H245.1z"/>
		<path d="M271.6,232.7v25.5H267v-25.5H271.6z"/>
		<path d="M288.9,258.1v-25.5h16.6v3.9h-11.9v6.9h11.1v3.9h-11.1v6.9h12v3.9H288.9z"/>
		<path d="M336.2,239.7c-0.1-1.1-0.6-1.9-1.5-2.5s-2-0.9-3.3-0.9c-1,0-1.8,0.1-2.5,0.4s-1.2,0.7-1.6,1.2c-0.4,0.5-0.6,1.1-0.6,1.7
			c0,0.5,0.1,1,0.4,1.4c0.2,0.4,0.6,0.7,1,1c0.4,0.3,0.9,0.5,1.4,0.7c0.5,0.2,1,0.3,1.6,0.5l2.4,0.6c1,0.2,1.9,0.5,2.8,0.9
			s1.7,0.9,2.4,1.4c0.7,0.6,1.3,1.3,1.7,2.1s0.6,1.8,0.6,2.9c0,1.5-0.4,2.8-1.1,3.9c-0.8,1.1-1.9,2-3.3,2.6c-1.4,0.6-3.2,1-5.2,1
			c-2,0-3.7-0.3-5.2-0.9s-2.6-1.5-3.4-2.7c-0.8-1.2-1.3-2.6-1.3-4.3h4.5c0.1,0.9,0.3,1.6,0.8,2.2c0.5,0.6,1.1,1,1.9,1.3
			s1.6,0.4,2.6,0.4c1,0,1.9-0.2,2.6-0.5s1.4-0.7,1.8-1.3c0.4-0.5,0.7-1.2,0.7-1.9c0-0.7-0.2-1.2-0.6-1.6c-0.4-0.4-0.9-0.8-1.6-1.1
			c-0.7-0.3-1.5-0.6-2.4-0.8l-2.9-0.7c-2.1-0.5-3.8-1.4-5-2.5s-1.8-2.6-1.8-4.4c0-1.5,0.4-2.8,1.2-3.9s1.9-2,3.3-2.6
			c1.4-0.6,3-0.9,4.8-0.9c1.8,0,3.4,0.3,4.8,0.9c1.4,0.6,2.4,1.5,3.2,2.6c0.8,1.1,1.2,2.4,1.2,3.8H336.2z"/>
	</g>
	<g>
		<path d="M103.3,272.8v10.9h-1.6v-10.9H103.3z"/>
		<path d="M131.1,272.8v10.9h-1.5l-5.5-8H124v8h-1.6v-10.9h1.5l5.6,8h0.1v-8H131.1z"/>
		<path d="M159.2,276.3h-1.7c-0.1-0.4-0.2-0.7-0.4-0.9c-0.2-0.3-0.4-0.5-0.6-0.7c-0.3-0.2-0.5-0.3-0.8-0.4s-0.6-0.1-1-0.1
			c-0.6,0-1.2,0.2-1.7,0.5c-0.5,0.3-0.9,0.8-1.2,1.4c-0.3,0.6-0.4,1.4-0.4,2.2c0,0.9,0.1,1.6,0.4,2.2c0.3,0.6,0.7,1.1,1.2,1.4
			s1.1,0.5,1.7,0.5c0.3,0,0.7,0,1-0.1c0.3-0.1,0.6-0.2,0.8-0.4c0.3-0.2,0.5-0.4,0.6-0.7c0.2-0.3,0.3-0.6,0.4-0.9l1.7,0
			c-0.1,0.5-0.3,1-0.5,1.5s-0.6,0.8-1,1.2s-0.8,0.6-1.4,0.8s-1.1,0.3-1.7,0.3c-0.9,0-1.8-0.2-2.5-0.7s-1.3-1.1-1.7-1.9
			c-0.4-0.8-0.6-1.8-0.6-3c0-1.2,0.2-2.2,0.6-3c0.4-0.8,1-1.5,1.7-1.9c0.7-0.4,1.6-0.7,2.5-0.7c0.6,0,1.1,0.1,1.6,0.2
			c0.5,0.2,1,0.4,1.4,0.7c0.4,0.3,0.7,0.7,1,1.2S159.2,275.7,159.2,276.3z"/>
		<path d="M177.9,283.7v-10.9h1.6v9.5h4.9v1.4H177.9z"/>
		<path d="M210,272.8h1.7v7.2c0,0.8-0.2,1.4-0.5,2s-0.9,1-1.5,1.4c-0.6,0.3-1.4,0.5-2.3,0.5c-0.9,0-1.6-0.2-2.3-0.5
			c-0.7-0.3-1.2-0.8-1.5-1.4c-0.4-0.6-0.5-1.3-0.5-2v-7.2h1.6v7c0,0.5,0.1,0.9,0.3,1.3c0.2,0.4,0.5,0.7,0.9,0.9
			c0.4,0.2,0.9,0.3,1.4,0.3c0.6,0,1-0.1,1.4-0.3c0.4-0.2,0.7-0.5,0.9-0.9c0.2-0.4,0.3-0.8,0.3-1.3V272.8z"/>
		<path d="M234.2,283.7h-3.5v-10.9h3.6c1.1,0,2,0.2,2.8,0.7c0.8,0.4,1.4,1.1,1.8,1.9s0.6,1.8,0.6,2.9c0,1.1-0.2,2.1-0.6,2.9
			c-0.4,0.8-1,1.4-1.8,1.9C236.3,283.5,235.3,283.7,234.2,283.7z M232.3,282.2h1.8c0.8,0,1.5-0.2,2.1-0.5c0.6-0.3,1-0.8,1.2-1.4
			s0.4-1.3,0.4-2.2c0-0.9-0.1-1.6-0.4-2.2c-0.3-0.6-0.7-1-1.2-1.4c-0.5-0.3-1.2-0.5-2-0.5h-1.9V282.2z"/>
		<path d="M258.2,283.7v-10.9h6.8v1.4h-5.2v3.3h4.8v1.4h-4.8v3.3h5.3v1.4H258.2z"/>
		<path d="M287.4,283.7h-3.5v-10.9h3.6c1.1,0,2,0.2,2.8,0.7c0.8,0.4,1.4,1.1,1.8,1.9s0.6,1.8,0.6,2.9c0,1.1-0.2,2.1-0.6,2.9
			c-0.4,0.8-1,1.4-1.8,1.9C289.4,283.5,288.5,283.7,287.4,283.7z M285.5,282.2h1.8c0.8,0,1.5-0.2,2.1-0.5c0.6-0.3,1-0.8,1.2-1.4
			s0.4-1.3,0.4-2.2c0-0.9-0.1-1.6-0.4-2.2s-0.7-1-1.2-1.4c-0.5-0.3-1.2-0.5-2-0.5h-1.9V282.2z"/>
	</g>
</g>
</svg>
