<svg width="26" height="26" viewBox="0 0 26 26" fill="none" xmlns="http://www.w3.org/2000/svg">
<path d="M13.0003 2.16675C7.04199 2.16675 2.16699 7.04175 2.16699 13.0001C2.16699 18.9584 7.04199 23.8334 13.0003 23.8334C18.9587 23.8334 23.8337 18.9584 23.8337 13.0001C23.8337 7.04175 18.9587 2.16675 13.0003 2.16675Z" fill="#FC408B"/>
<path d="M13.0003 2.16675C7.04199 2.16675 2.16699 7.04175 2.16699 13.0001C2.16699 18.9584 7.04199 23.8334 13.0003 23.8334C18.9587 23.8334 23.8337 18.9584 23.8337 13.0001C23.8337 7.04175 18.9587 2.16675 13.0003 2.16675ZM17.6587 10.4001L12.6753 16.9001C12.4587 17.1167 12.1337 17.3334 11.8087 17.3334C11.4837 17.3334 11.1587 17.2251 10.942 16.9001L8.34199 13.5417C8.01699 13.1084 8.01699 12.3501 8.55866 12.0251C9.10033 11.7001 9.75033 11.7001 10.0753 12.2417L11.8087 14.5167L15.9253 9.10008C16.2503 8.66675 17.0087 8.55841 17.442 8.88341C17.9837 9.20841 17.9837 9.85842 17.6587 10.4001Z" fill="url(#paint0_linear_2640_12062)"/>
<defs>
<linearGradient id="paint0_linear_2640_12062" x1="13.0003" y1="2.14559" x2="13.0003" y2="23.8334" gradientUnits="userSpaceOnUse">
<stop stop-color="white"/>
<stop stop-color="#FAFAFF"/>
<stop offset="0.629339" stop-color="#FBF0F9"/>
<stop offset="1" stop-color="#FFFCFD"/>
</linearGradient>
</defs>
</svg>
