<svg xmlns="http://www.w3.org/2000/svg" viewBox="0 0 500 500"><g id="freepik--background-simple--inject-79"><path d="M156.07,74.29c-26.16,11.94-36,35.63-31.23,58.8,3.27,16.08,14.95,31.11,11.87,47.23-1.89,9.91-4,19.56-11.94,26.05s-16.85,11.94-23.91,19.33a57.2,57.2,0,0,0-14,52.87c4.72,18.41,14.32,32.57,32.78,38.79,13.42,4.52,28,4.22,42,6.51s28.76,8.24,35.12,20.56c10,19.38,39,24.7,59.85,17,10.76-4,19.93-11.13,30.1-16.37s22.54-8.52,33.13-4.12c16.63,6.9,35.73,12.54,52.22,5.35s28.92-22.59,32.12-39.86c7.18-38.66-36.05-81.29-26.73-119.51,4.8-19.69,28.05-30.56,32-50.44,4.82-24.43-11.43-49.67-34-61.38s-50-11.86-75-6.45C276.68,73.72,253,83.55,229.09,79.5,229.09,79.5,188.74,59.38,156.07,74.29Z" style="fill:#FC408B"></path><g style="opacity:0.9"><path d="M156.07,74.29c-26.16,11.94-36,35.63-31.23,58.8,3.27,16.08,14.95,31.11,11.87,47.23-1.89,9.91-4,19.56-11.94,26.05s-16.85,11.94-23.91,19.33a57.2,57.2,0,0,0-14,52.87c4.72,18.41,14.32,32.57,32.78,38.79,13.42,4.52,28,4.22,42,6.51s28.76,8.24,35.12,20.56c10,19.38,39,24.7,59.85,17,10.76-4,19.93-11.13,30.1-16.37s22.54-8.52,33.13-4.12c16.63,6.9,35.73,12.54,52.22,5.35s28.92-22.59,32.12-39.86c7.18-38.66-36.05-81.29-26.73-119.51,4.8-19.69,28.05-30.56,32-50.44,4.82-24.43-11.43-49.67-34-61.38s-50-11.86-75-6.45C276.68,73.72,253,83.55,229.09,79.5,229.09,79.5,188.74,59.38,156.07,74.29Z" style="fill:#fff"></path></g></g><g id="freepik--Shadow--inject-79"><ellipse id="freepik--path--inject-79" cx="250" cy="415.69" rx="193.89" ry="11.32" style="fill:#f5f5f5"></ellipse></g><g id="freepik--Chemistry--inject-79"><path d="M389.27,181.78l-3.15,1.44a1.89,1.89,0,0,0-.94,2.5l0,0a1.87,1.87,0,0,0,1.62,1.09l12.64,27.74a2.18,2.18,0,0,0,2.88,1.08l.77-.36a2.17,2.17,0,0,0,1.08-2.88l-12.64-27.73a1.9,1.9,0,0,0,.24-1.95v0A1.9,1.9,0,0,0,389.27,181.78Z" style="fill:#FC408B"></path><path d="M389.27,181.78l-3.15,1.44a1.89,1.89,0,0,0-.94,2.5l0,0a1.87,1.87,0,0,0,1.62,1.09l12.64,27.74a2.18,2.18,0,0,0,2.88,1.08l.77-.36a2.17,2.17,0,0,0,1.08-2.88l-12.64-27.73a1.9,1.9,0,0,0,.24-1.95v0A1.9,1.9,0,0,0,389.27,181.78Z" style="fill:#fff;opacity:0.6000000000000001"></path><path d="M385.23,184.08a6.23,6.23,0,0,0,2.84-.76,6.13,6.13,0,0,0,2.43-1.65,1.88,1.88,0,0,0-1.23.11l-3.15,1.44A1.86,1.86,0,0,0,385.23,184.08Z" style="fill:#FC408B"></path><path d="M395.12,198.79c-.82.37-1.57.46-1.7.21l6.92,15.18a1.2,1.2,0,0,0,1.59.6l.78-.36a1.2,1.2,0,0,0,.6-1.6l-6.92-15.18C396.5,197.91,395.93,198.42,395.12,198.79Z" style="fill:#FC408B"></path><path d="M396.4,197.63c.12.26-.46.78-1.28,1.16s-1.59.47-1.71.2.45-.78,1.27-1.16S396.27,197.37,396.4,197.63Z" style="fill:#FC408B"></path><path d="M396.4,197.63c.12.26-.46.78-1.28,1.16s-1.59.47-1.71.2.45-.78,1.27-1.16S396.27,197.37,396.4,197.63Z" style="opacity:0.30000000000000004"></path><g style="opacity:0.8"><path d="M387.77,186.65l12.54,27.54a.48.48,0,0,0,.88-.4l-12.54-27.54a.48.48,0,0,0-.88.4Z" style="fill:#fff"></path></g><path d="M425.26,224.49A11.54,11.54,0,0,0,416.6,215v-13a2.37,2.37,0,0,0,1.82-2.3v0a2.37,2.37,0,0,0-2.37-2.37H411.7a2.37,2.37,0,0,0-2.37,2.37v0a2.36,2.36,0,0,0,1.82,2.3V215a11.5,11.5,0,0,0-3.94,20.56,4.49,4.49,0,0,0,2.61.82h8.11a4.51,4.51,0,0,0,2.59-.81A11.49,11.49,0,0,0,425.26,224.49Z" style="fill:#FC408B"></path><path d="M425.26,224.49A11.54,11.54,0,0,0,416.6,215v-13a2.37,2.37,0,0,0,1.82-2.3v0a2.37,2.37,0,0,0-2.37-2.37H411.7a2.37,2.37,0,0,0-2.37,2.37v0a2.36,2.36,0,0,0,1.82,2.3V215a11.5,11.5,0,0,0-3.94,20.56,4.49,4.49,0,0,0,2.61.82h8.11a4.51,4.51,0,0,0,2.59-.81A11.49,11.49,0,0,0,425.26,224.49Z" style="fill:#FC408B"></path><path d="M425.26,224.49A11.54,11.54,0,0,0,416.6,215v-13a2.37,2.37,0,0,0,1.82-2.3v0a2.37,2.37,0,0,0-2.37-2.37H411.7a2.37,2.37,0,0,0-2.37,2.37v0a2.36,2.36,0,0,0,1.82,2.3V215a11.5,11.5,0,0,0-3.94,20.56,4.49,4.49,0,0,0,2.61.82h8.11a4.51,4.51,0,0,0,2.59-.81A11.49,11.49,0,0,0,425.26,224.49Z" style="fill:#fff;opacity:0.7000000000000001"></path><path d="M410.24,197.89a11.14,11.14,0,0,0,7.27,0,2.36,2.36,0,0,0-1.46-.52H411.7A2.34,2.34,0,0,0,410.24,197.89Z" style="fill:#FC408B"></path><path d="M424.06,224.66A9.94,9.94,0,0,0,422.7,221c-.12.65-4,1.18-8.83,1.18s-8.76-.54-8.83-1.2a10.25,10.25,0,0,0,2.87,13.66,3.35,3.35,0,0,0,1.91.6h8.11a3.26,3.26,0,0,0,1.89-.59A10.31,10.31,0,0,0,424.06,224.66Z" style="fill:#FC408B"></path><path d="M422.71,220.92c0,.66-4,1.21-8.84,1.21s-8.84-.55-8.84-1.21,4-1.22,8.84-1.22S422.71,220.25,422.71,220.92Z" style="fill:#FC408B"></path><path d="M422.71,220.92c0,.66-4,1.21-8.84,1.21s-8.84-.55-8.84-1.21,4-1.22,8.84-1.22S422.71,220.25,422.71,220.92Z" style="opacity:0.2"></path><path d="M404.69,226.47s2.05,7.72,5.29,7.24S407.67,230.65,404.69,226.47Z" style="fill:#fff;opacity:0.5"></path></g><g id="freepik--Device--inject-79"><path d="M402.27,114c-.94,3.1-16.23,1.2-34.15-4.25s-31.69-12.38-30.74-15.48,16.23-1.19,34.15,4.25S403.21,110.87,402.27,114Z" style="fill:#FC408B"></path><path d="M402.27,114c-.94,3.1-16.23,1.2-34.15-4.25s-31.69-12.38-30.74-15.48,16.23-1.19,34.15,4.25S403.21,110.87,402.27,114Z" style="fill:#fff;opacity:0.8"></path><path d="M353.75,122.63a1.56,1.56,0,0,1-1-.39,1.58,1.58,0,0,1-.45-1.81l4.44-11.24,3.4.39-4.87,12a1.62,1.62,0,0,1-.66.78A1.68,1.68,0,0,1,353.75,122.63Zm3.61-12.36L353.2,120.8a.6.6,0,0,0,.86.74.54.54,0,0,0,.25-.29l4.38-10.83Z" style="fill:#263238"></path><path d="M373.86,128.73a1.57,1.57,0,0,1-1.44-.91,1.63,1.63,0,0,1-.12-1L375,114.09l3.05,1.57-2.57,11.81a1.58,1.58,0,0,1-1.38,1.25Zm1.8-13.15L373.28,127a.62.62,0,0,0,0,.38.6.6,0,0,0,1.13-.13l2.41-11.06Z" style="fill:#263238"></path><polygon points="357.17 111.79 355.3 111.22 356.4 107.58 358.88 108.33 357.17 111.79" style="fill:#FC408B"></polygon><polygon points="357.17 111.79 359.6 111.32 361.16 108.07 358.88 108.33 357.17 111.79" style="fill:#FC408B"></polygon><polygon points="357.17 111.79 355.3 111.22 356.4 107.58 358.88 108.33 357.17 111.79" style="fill:#fff;opacity:0.1"></polygon><polygon points="376.2 117.57 378.07 118.14 379.18 114.5 376.7 113.75 376.2 117.57" style="fill:#FC408B"></polygon><polygon points="376.2 117.57 374.43 115.83 374.95 112.26 376.7 113.75 376.2 117.57" style="fill:#FC408B"></polygon><polygon points="376.2 117.57 378.07 118.14 379.18 114.5 376.7 113.75 376.2 117.57" style="fill:#fff;opacity:0.1"></polygon><path d="M354.9,98.77c-.09,0-4.55-1-6.59-1.44a.06.06,0,1,0,0,.11l5,1.69Z" style="fill:#FC408B"></path><g style="opacity:0.30000000000000004"><path d="M354.9,98.77c-.09,0-4.55-1-6.59-1.44a.06.06,0,1,0,0,.11l5,1.69Z" style="fill:#fff"></path></g><path d="M354.6,101.4l-2.58-.78.25-.81a1.34,1.34,0,0,1,1.68-.9h0a1.36,1.36,0,0,1,.9,1.68Z" style="fill:#FC408B"></path><path d="M354.9,98.22l-.19.64-1.27-.39.19-.64a.68.68,0,0,1,.83-.44A.66.66,0,0,1,354.9,98.22Z" style="fill:#FC408B"></path><path d="M354.6,101.4l-2.58-.78.25-.81a1.34,1.34,0,0,1,1.68-.9h0a1.36,1.36,0,0,1,.9,1.68Z" style="fill:#fff;opacity:0.4"></path><path d="M358.33,99.61l1.26.57a.26.26,0,0,1,0,.49h0a4.4,4.4,0,0,1-2,0l-1.61-.39a.2.2,0,0,1-.08,0l-1.62-1-.62-.64,1.82.22A9.65,9.65,0,0,1,358.33,99.61Z" style="fill:#FC408B"></path><path d="M358.33,99.61l1.26.57a.26.26,0,0,1,0,.49h0a4.4,4.4,0,0,1-2,0l-1.61-.39a.2.2,0,0,1-.08,0l-1.62-1-.62-.64,1.82.22A9.65,9.65,0,0,1,358.33,99.61Z" style="fill:#fff;opacity:0.6000000000000001"></path><path d="M362,104.5l-1.2,2.09L352,102.33a.89.89,0,0,1,.52-1.71l1.84.56a.88.88,0,0,1,.61.66h0Z" style="fill:#FC408B"></path><path d="M362,104.5l-1.2,2.09L352,102.33a.89.89,0,0,1,.52-1.71l1.84.56a.88.88,0,0,1,.61.66h0Z" style="fill:#fff;opacity:0.4"></path><path d="M385.35,108l6.28,2.48a.06.06,0,0,1,0,.11l-5.09-1.37Z" style="fill:#FC408B"></path><g style="opacity:0.30000000000000004"><path d="M385.35,108l6.28,2.48a.06.06,0,0,1,0,.11l-5.09-1.37Z" style="fill:#fff"></path></g><path d="M384.14,110.38l2.58.78.24-.81a1.34,1.34,0,0,0-.9-1.68h0a1.35,1.35,0,0,0-1.68.9Z" style="fill:#FC408B"></path><path d="M385.66,107.57l-.2.63,1.27.39.19-.64a.66.66,0,0,0-1.26-.38Z" style="fill:#FC408B"></path><path d="M384.14,110.38l2.58.78.24-.81a1.34,1.34,0,0,0-.9-1.68h0a1.35,1.35,0,0,0-1.68.9Z" style="fill:#fff;opacity:0.4"></path><path d="M382,106.82l-1.37-.23a.26.26,0,0,0-.23.43h0a4.36,4.36,0,0,0,1.7,1.14l1.55.57h.09l1.91.07.87-.19-1.64-.84A9.77,9.77,0,0,0,382,106.82Z" style="fill:#FC408B"></path><path d="M382,106.82l-1.37-.23a.26.26,0,0,0-.23.43h0a4.36,4.36,0,0,0,1.7,1.14l1.55.57h.09l1.91.07.87-.19-1.64-.84A9.77,9.77,0,0,0,382,106.82Z" style="fill:#fff;opacity:0.6000000000000001"></path><path d="M376.31,108.86l-.17,2.41,9.66,1.33a.89.89,0,0,0,.51-1.7l-1.84-.56a.86.86,0,0,0-.87.21h0Z" style="fill:#FC408B"></path><path d="M376.31,108.86l-.17,2.41,9.66,1.33a.89.89,0,0,0,.51-1.7l-1.84-.56a.86.86,0,0,0-.87.21h0Z" style="fill:#fff;opacity:0.4"></path><path d="M347.33,95.55c.18,0,8.77,1.64,12.71,2.39a.11.11,0,0,1,0,.22L350,97.42Z" style="fill:#FC408B"></path><path d="M347.33,95.55c.18,0,8.77,1.64,12.71,2.39a.11.11,0,0,1,0,.22L350,97.42Z" style="fill:#fff;opacity:0.6000000000000001"></path><path d="M350.28,96.34a1.13,1.13,0,1,1-.76-1.41A1.14,1.14,0,0,1,350.28,96.34Z" style="fill:#FC408B"></path><rect x="347.9" y="95.98" width="2.26" height="1.13" transform="translate(43.16 -97.33) rotate(16.91)" style="fill:#FC408B"></rect><rect x="348.13" y="97.08" width="1.31" height="0.59" transform="translate(43.39 -97.22) rotate(16.91)" style="fill:#FC408B"></rect><path d="M340.66,94.48l-2.64.06a.5.5,0,0,0-.29.9h0a8.23,8.23,0,0,0,3.6,1.52l3.14.51a.43.43,0,0,0,.16,0l3.61-.57,1.57-.66-3.37-1A18.58,18.58,0,0,0,340.66,94.48Z" style="fill:#FC408B"></path><g style="opacity:0.6000000000000001"><path d="M340.66,94.48l-2.64.06a.5.5,0,0,0-.29.9h0a8.23,8.23,0,0,0,3.6,1.52l3.14.51a.43.43,0,0,0,.16,0l3.61-.57,1.57-.66-3.37-1A18.58,18.58,0,0,0,340.66,94.48Z" style="fill:#fff"></path></g><path d="M347.83,97.43h.56a2,2,0,0,1,2,2v1.72a0,0,0,0,1,0,0h-4.6a0,0,0,0,1,0,0V99.45A2,2,0,0,1,347.83,97.43Z" transform="translate(43.92 -96.93) rotate(16.91)" style="fill:#FC408B"></path><path d="M347.83,97.43h.56a2,2,0,0,1,2,2v1.72a0,0,0,0,1,0,0h-4.6a0,0,0,0,1,0,0V99.45A2,2,0,0,1,347.83,97.43Z" transform="translate(43.92 -96.93) rotate(16.91)" style="fill:#fff;opacity:0.2"></path><path d="M369.05,117.67l-6.22-1.9.46-.49a1.44,1.44,0,0,1,1.47-.4l3.18,1a1.43,1.43,0,0,1,1,1.14Z" style="fill:#FC408B"></path><path d="M369.05,117.67l-6.22-1.9.46-.49a1.44,1.44,0,0,1,1.47-.4l3.18,1a1.43,1.43,0,0,1,1,1.14Z" style="fill:#fff;opacity:0.1"></path><rect x="365.92" y="112.03" width="1.64" height="3.8" transform="translate(48.97 -101.72) rotate(16.9)" style="opacity:0.30000000000000004"></rect><rect x="363.13" y="114.86" width="4.68" height="6.86" rx="1.34" transform="translate(146.01 433.56) rotate(-73.09)" style="fill:#FC408B"></rect><rect x="363.13" y="114.86" width="4.68" height="6.86" rx="1.34" transform="translate(146.01 433.56) rotate(-73.09)" style="fill:#fff;opacity:0.2"></rect><path d="M367.12,120.07,363,118.81l.11-.38A2.16,2.16,0,0,1,365.8,117h0a2.16,2.16,0,0,1,1.44,2.69Z" style="fill:#FC408B"></path><path d="M367.19,119.86a2.18,2.18,0,0,1-4.13-1.25,2.17,2.17,0,0,1,4.13,1.25Z" style="fill:#FC408B"></path><path d="M367.19,119.86a2.18,2.18,0,0,1-4.13-1.25,2.17,2.17,0,0,1,4.13,1.25Z" style="opacity:0.30000000000000004"></path><path d="M366.67,119.89a1.73,1.73,0,1,1-1.22-1.84A1.58,1.58,0,0,1,366.67,119.89Z" style="fill:#FC408B"></path><path d="M366.67,119.89a1.73,1.73,0,1,1-1.22-1.84A1.58,1.58,0,0,1,366.67,119.89Z" style="opacity:0.2"></path><path d="M366.25,119.77a1.17,1.17,0,0,1-1.52.64,1.07,1.07,0,1,1,.62-2A1.16,1.16,0,0,1,366.25,119.77Z" style="fill:#FC408B"></path><path d="M366.25,119.77a1.17,1.17,0,0,1-1.52.64,1.07,1.07,0,1,1,.62-2A1.16,1.16,0,0,1,366.25,119.77Z" style="opacity:0.30000000000000004"></path><path d="M365.8,119.54a.78.78,0,0,1-1.46-.45.78.78,0,0,1,1.46.45Z" style="fill:#FC408B"></path><path d="M365.8,119.54a.78.78,0,0,1-1.46-.45.78.78,0,0,1,1.46.45Z" style="opacity:0.4"></path><path d="M365.67,119.37a.54.54,0,0,1-.71.29.54.54,0,0,1-.42-.64.6.6,0,0,1,1.13.35Z" style="fill:#FC408B"></path><path d="M365.44,119.2c0,.11-.2.17-.37.12s-.29-.19-.25-.31.2-.17.38-.12S365.48,119.08,365.44,119.2Z" style="fill:#FC408B"></path><path d="M365.44,119.2c0,.11-.2.17-.37.12s-.29-.19-.25-.31.2-.17.38-.12S365.48,119.08,365.44,119.2Z" style="fill:#fff;opacity:0.2"></path><path d="M367.8,113.79l-1.87-.57a1.18,1.18,0,0,1-.78-1.47h0a1.18,1.18,0,0,1,1.47-.79l1.87.57a1.18,1.18,0,0,1,.78,1.47h0A1.18,1.18,0,0,1,367.8,113.79Z" style="fill:#FC408B"></path><path d="M391.7,114.18l-3.14-1a1.46,1.46,0,0,0-1,0l-37.51-11.4a1.46,1.46,0,0,0-.79-.57l-3.13-1a1.51,1.51,0,0,0-1.89,1h0a1.52,1.52,0,0,0,1,1.9l2.3.7h0l12.93,5.36.61,2.51a3.85,3.85,0,0,0,2.61,2.75l5.45,1.66a3.85,3.85,0,0,0,3.7-.84l1.91-1.74,13.72,2.74h0l2.3.7a1.53,1.53,0,0,0,1.9-1h0A1.52,1.52,0,0,0,391.7,114.18Z" style="fill:#FC408B"></path><path d="M391.7,114.18l-3.14-1a1.46,1.46,0,0,0-1,0l-37.51-11.4a1.46,1.46,0,0,0-.79-.57l-3.13-1a1.51,1.51,0,0,0-1.89,1h0a1.52,1.52,0,0,0,1,1.9l2.3.7h0l12.93,5.36.61,2.51a3.85,3.85,0,0,0,2.61,2.75l5.45,1.66a3.85,3.85,0,0,0,3.7-.84l1.91-1.74,13.72,2.74h0l2.3.7a1.53,1.53,0,0,0,1.9-1h0A1.52,1.52,0,0,0,391.7,114.18Z" style="fill:#fff;opacity:0.2"></path><path d="M376.91,110c-.46,1.53-4.5,1.65-9,.28s-7.8-3.72-7.34-5.25,4.5-1.65,9-.28S377.37,108.48,376.91,110Z" style="fill:#FC408B"></path><path d="M376.91,110c-.46,1.53-4.5,1.65-9,.28s-7.8-3.72-7.34-5.25,4.5-1.65,9-.28S377.37,108.48,376.91,110Z" style="fill:#fff;opacity:0.4"></path><path d="M393.36,109.54c-.16-.08-8.2-3.52-11.88-5.09a.11.11,0,0,0-.1.2l8.77,5Z" style="fill:#FC408B"></path><path d="M393.36,109.54c-.16-.08-8.2-3.52-11.88-5.09a.11.11,0,0,0-.1.2l8.77,5Z" style="fill:#fff;opacity:0.6000000000000001"></path><path d="M390.48,108.56a1.13,1.13,0,1,0,1.41-.76A1.13,1.13,0,0,0,390.48,108.56Z" style="fill:#FC408B"></path><rect x="390.27" y="108.86" width="2.26" height="1.13" transform="translate(734.05 327.95) rotate(-163.09)" style="fill:#FC408B"></rect><rect x="390.49" y="109.95" width="1.31" height="0.59" transform="translate(733.32 329.49) rotate(-163.09)" style="fill:#FC408B"></rect><path d="M399.51,112.36l2.16,1.52a.5.5,0,0,1-.27.91h0a8.19,8.19,0,0,1-3.84-.74l-2.89-1.32a.51.51,0,0,1-.13-.09l-2.68-2.48-.94-1.43,3.36,1.06A19,19,0,0,1,399.51,112.36Z" style="fill:#FC408B"></path><g style="opacity:0.6000000000000001"><path d="M399.51,112.36l2.16,1.52a.5.5,0,0,1-.27.91h0a8.19,8.19,0,0,1-3.84-.74l-2.89-1.32a.51.51,0,0,1-.13-.09l-2.68-2.48-.94-1.43,3.36,1.06A19,19,0,0,1,399.51,112.36Z" style="fill:#fff"></path></g><path d="M387.89,113.35l4.4,1.33.42-1.38a2.3,2.3,0,0,0-1.53-2.86h0a2.29,2.29,0,0,0-2.87,1.53Z" style="fill:#FC408B"></path><path d="M387.89,113.35l4.4,1.33.42-1.38a2.3,2.3,0,0,0-1.53-2.86h0a2.29,2.29,0,0,0-2.87,1.53Z" style="fill:#fff;opacity:0.2"></path></g><g id="freepik--Rocket--inject-79"><path d="M132,127.78l3.83-32.59a.65.65,0,0,0-.92-.66L105,108.17a.64.64,0,0,0-.11,1.11l26,18.95A.65.65,0,0,0,132,127.78Z" style="fill:#FC408B"></path><path d="M132,127.78l3.83-32.59a.65.65,0,0,0-.92-.66L105,108.17a.64.64,0,0,0-.11,1.11l26,18.95A.65.65,0,0,0,132,127.78Z" style="opacity:0.30000000000000004"></path><path d="M121.6,126.72l2.53-2.13,2.27,1.65-1.25,3.06A5.74,5.74,0,0,1,121.6,126.72Z" style="fill:#263238"></path><path d="M126.4,126.24s-.19.46-.29.72a5.78,5.78,0,0,1-2.58-1.87l.6-.5Z" style="fill:#fff;opacity:0.2"></path><path d="M125.79,127.73l-.23.57a6.53,6.53,0,0,1-3.13-2.28l.47-.4A9.27,9.27,0,0,0,125.79,127.73Z" style="fill:#fff;opacity:0.4"></path><path d="M123,123.48a7.74,7.74,0,0,0,4.81,3.5l14-19.26a10.08,10.08,0,0,0,1.82-7.55,10.08,10.08,0,0,0-6.63,4Z" style="fill:#FC408B"></path><path d="M141.83,107.72l-13.22,18.16a9,9,0,0,1-4.81-3.5c1.42-2,13.22-18.16,13.22-18.16a10.08,10.08,0,0,1,6.63-4A10.08,10.08,0,0,1,141.83,107.72Z" style="fill:#FC408B"></path><path d="M141.83,107.72l-13.22,18.16a9,9,0,0,1-4.81-3.5c1.42-2,13.22-18.16,13.22-18.16a10.08,10.08,0,0,1,6.63-4A10.08,10.08,0,0,1,141.83,107.72Z" style="fill:#fff;opacity:0.4"></path><path d="M141.83,107.72l-9.93,13.64a10.89,10.89,0,0,1-4.81-3.5L137,104.22a10.08,10.08,0,0,1,6.63-4A10.08,10.08,0,0,1,141.83,107.72Z" style="fill:#FC408B"></path><path d="M141.83,107.72l-9.93,13.64a10.89,10.89,0,0,1-4.81-3.5L137,104.22a10.08,10.08,0,0,1,6.63-4A10.08,10.08,0,0,1,141.83,107.72Z" style="fill:#fff;opacity:0.6000000000000001"></path><path d="M141.83,107.72l-5.2,7.14a10.82,10.82,0,0,1-4.81-3.5l5.2-7.14a10.08,10.08,0,0,1,6.63-4A10.08,10.08,0,0,1,141.83,107.72Z" style="fill:#FC408B"></path><path d="M141.83,107.72l-5.2,7.14a10.82,10.82,0,0,1-4.81-3.5l5.2-7.14a10.08,10.08,0,0,1,6.63-4A10.08,10.08,0,0,1,141.83,107.72Z" style="fill:#fff;opacity:0.8"></path><path d="M141.83,107.72l-.61.84a10.84,10.84,0,0,1-4.81-3.51l.61-.83a10.08,10.08,0,0,1,6.63-4A10.08,10.08,0,0,1,141.83,107.72Z" style="fill:#FC408B"></path><path d="M141.83,107.72l-.61.84a10.84,10.84,0,0,1-4.81-3.51l.61-.83a10.08,10.08,0,0,1,6.63-4A10.08,10.08,0,0,1,141.83,107.72Z" style="fill:#fff;opacity:0.4"></path><path d="M106.13,115.45l2.52-2.13,2.28,1.66-1.26,3A5.71,5.71,0,0,1,106.13,115.45Z" style="fill:#263238"></path><path d="M110.93,115l-.29.71a5.67,5.67,0,0,1-2.58-1.87l.59-.5Z" style="fill:#fff;opacity:0.2"></path><path d="M110.32,116.46l-.23.57a6.47,6.47,0,0,1-3.13-2.28l.47-.4A9.27,9.27,0,0,0,110.32,116.46Z" style="fill:#fff;opacity:0.4"></path><path d="M107.52,112.21a7.79,7.79,0,0,0,4.81,3.51l14-19.26a10.11,10.11,0,0,0,1.82-7.56,10.12,10.12,0,0,0-6.63,4Z" style="fill:#FC408B"></path><path d="M126.36,96.46s-11.8,16.19-13.22,18.15a9,9,0,0,1-4.81-3.5L121.55,93a10.12,10.12,0,0,1,6.63-4A10.11,10.11,0,0,1,126.36,96.46Z" style="fill:#FC408B"></path><path d="M126.36,96.46s-11.8,16.19-13.22,18.15a9,9,0,0,1-4.81-3.5L121.55,93a10.12,10.12,0,0,1,6.63-4A10.11,10.11,0,0,1,126.36,96.46Z" style="fill:#fff;opacity:0.4"></path><path d="M126.36,96.46l-9.93,13.63a10.76,10.76,0,0,1-4.81-3.5L121.55,93a10.12,10.12,0,0,1,6.63-4A10.11,10.11,0,0,1,126.36,96.46Z" style="fill:#FC408B"></path><path d="M126.36,96.46l-9.93,13.63a10.76,10.76,0,0,1-4.81-3.5L121.55,93a10.12,10.12,0,0,1,6.63-4A10.11,10.11,0,0,1,126.36,96.46Z" style="fill:#fff;opacity:0.6000000000000001"></path><path d="M126.36,96.46l-5.2,7.14a10.79,10.79,0,0,1-4.81-3.51l5.2-7.14a10.12,10.12,0,0,1,6.63-4A10.11,10.11,0,0,1,126.36,96.46Z" style="fill:#FC408B"></path><path d="M126.36,96.46l-5.2,7.14a10.79,10.79,0,0,1-4.81-3.51l5.2-7.14a10.12,10.12,0,0,1,6.63-4A10.11,10.11,0,0,1,126.36,96.46Z" style="fill:#fff;opacity:0.8"></path><path d="M126.36,96.46l-.61.83a10.89,10.89,0,0,1-4.81-3.5l.61-.84a10.12,10.12,0,0,1,6.63-4A10.11,10.11,0,0,1,126.36,96.46Z" style="fill:#FC408B"></path><path d="M126.36,96.46l-.61.83a10.89,10.89,0,0,1-4.81-3.5l.61-.84a10.12,10.12,0,0,1,6.63-4A10.11,10.11,0,0,1,126.36,96.46Z" style="fill:#fff;opacity:0.4"></path><path d="M111.7,121.78l4.07-3.44,3.67,2.68-2,4.93A9.21,9.21,0,0,1,111.7,121.78Z" style="fill:#263238"></path><path d="M119.44,121l-.47,1.15a9.18,9.18,0,0,1-4.16-3l1-.81Z" style="fill:#fff;opacity:0.2"></path><path d="M118.46,123.41l-.38.92a10.53,10.53,0,0,1-5-3.67l.76-.65A14.92,14.92,0,0,0,118.46,123.41Z" style="fill:#fff;opacity:0.4"></path><path d="M113.94,116.55a12.47,12.47,0,0,0,7.76,5.66l22.65-31.09a16.38,16.38,0,0,0,2.94-12.2,16.36,16.36,0,0,0-10.71,6.54Z" style="fill:#FC408B"></path><path d="M144.35,91.12,123,120.43a14.68,14.68,0,0,1-7.77-5.66c2.31-3.16,21.35-29.31,21.35-29.31a16.36,16.36,0,0,1,10.71-6.54A16.38,16.38,0,0,1,144.35,91.12Z" style="fill:#FC408B"></path><path d="M144.35,91.12,123,120.43a14.68,14.68,0,0,1-7.77-5.66c2.31-3.16,21.35-29.31,21.35-29.31a16.36,16.36,0,0,1,10.71-6.54A16.38,16.38,0,0,1,144.35,91.12Z" style="fill:#fff;opacity:0.4"></path><path d="M144.35,91.12l-16,22a17.39,17.39,0,0,1-7.77-5.66l16-22a16.36,16.36,0,0,1,10.71-6.54A16.38,16.38,0,0,1,144.35,91.12Z" style="fill:#FC408B"></path><path d="M144.35,91.12l-16,22a17.39,17.39,0,0,1-7.77-5.66l16-22a16.36,16.36,0,0,1,10.71-6.54A16.38,16.38,0,0,1,144.35,91.12Z" style="fill:#fff;opacity:0.6000000000000001"></path><path d="M144.35,91.12,136,102.64A17.39,17.39,0,0,1,128.19,97l8.39-11.53a16.36,16.36,0,0,1,10.71-6.54A16.38,16.38,0,0,1,144.35,91.12Z" style="fill:#FC408B"></path><path d="M144.35,91.12,136,102.64A17.39,17.39,0,0,1,128.19,97l8.39-11.53a16.36,16.36,0,0,1,10.71-6.54A16.38,16.38,0,0,1,144.35,91.12Z" style="fill:#fff;opacity:0.8"></path><path d="M144.35,91.12l-1,1.34a17.55,17.55,0,0,1-7.77-5.65l1-1.35a16.36,16.36,0,0,1,10.71-6.54A16.38,16.38,0,0,1,144.35,91.12Z" style="fill:#FC408B"></path><path d="M144.35,91.12l-1,1.34a17.55,17.55,0,0,1-7.77-5.65l1-1.35a16.36,16.36,0,0,1,10.71-6.54A16.38,16.38,0,0,1,144.35,91.12Z" style="fill:#fff;opacity:0.1"></path><path d="M133.67,92.86a2.8,2.8,0,1,0,3.91-.61A2.8,2.8,0,0,0,133.67,92.86Z" style="fill:#FC408B"></path><path d="M134.29,96.77a2.79,2.79,0,0,0,3.77-.45,1.74,1.74,0,0,1-.11.18,2.8,2.8,0,0,1-4.53-3.3l.14-.16A2.79,2.79,0,0,0,134.29,96.77Z" style="fill:#FC408B"></path><path d="M134.29,96.77a2.79,2.79,0,0,0,3.77-.45,1.74,1.74,0,0,1-.11.18,2.8,2.8,0,0,1-4.53-3.3l.14-.16A2.79,2.79,0,0,0,134.29,96.77Z" style="opacity:0.30000000000000004"></path><path d="M134.34,93.34a2,2,0,1,0,2.76-.43A2,2,0,0,0,134.34,93.34Z" style="fill:#fff"></path><path d="M134.86,96.16l1.59-3.56a2.1,2.1,0,0,1,.61.28l-1.59,3.55A1.84,1.84,0,0,1,134.86,96.16Z" style="fill:#FC408B"></path><path d="M134.32,95.64l1.39-3.09a2.26,2.26,0,0,1,.37,0l-1.51,3.38A1.32,1.32,0,0,1,134.32,95.64Z" style="fill:#FC408B"></path><g style="opacity:0.7000000000000001"><path d="M134.86,96.16l1.59-3.56a2.1,2.1,0,0,1,.61.28l-1.59,3.55A1.84,1.84,0,0,1,134.86,96.16Z" style="fill:#fff"></path><path d="M134.32,95.64l1.39-3.09a2.26,2.26,0,0,1,.37,0l-1.51,3.38A1.32,1.32,0,0,1,134.32,95.64Z" style="fill:#fff"></path></g></g><g id="freepik--magnifying-glass--inject-79"><circle cx="100.68" cy="182.84" r="15.47" transform="translate(-53.33 41.96) rotate(-18.71)" style="opacity:0.1"></circle><polygon points="95.53 195.74 80.81 224.23 78.37 222.97 93.09 194.48 95.53 195.74" style="fill:#FC408B"></polygon><polyline points="93.09 194.48 95.53 195.74 80.81 224.23 78.37 222.97" style="opacity:0.5"></polyline><path d="M90.71,209.21l-7.24,14a2.16,2.16,0,0,1-2.92.93l-1.92-1a2.18,2.18,0,0,1-.93-2.93l7.24-14a2.42,2.42,0,0,1,3.26-1l1.47.77A2.42,2.42,0,0,1,90.71,209.21Z" style="fill:#FC408B"></path><path d="M90.71,209.21l-7.24,14a2.16,2.16,0,0,1-2.92.93l-1.92-1a2.18,2.18,0,0,1-.93-2.93l7.24-14a2.42,2.42,0,0,1,3.26-1l1.47.77A2.42,2.42,0,0,1,90.71,209.21Z" style="fill:#fff;opacity:0.5"></path><path d="M106.24,198.76l-.45.15a16.85,16.85,0,1,1,.45-.15ZM96.06,169.6a13.9,13.9,0,0,0-7.84,6.78,14,14,0,1,0,8.21-6.91Z" style="fill:#FC408B"></path><path d="M94,171.29c-4.55,2.8-8,10.36-5.84,16.42.68,1.25,1.12,2,1.73,3a.33.33,0,0,0,.62-.17,30.58,30.58,0,0,1,7.16-19.93.33.33,0,0,0-.36-.53C96.23,170.43,95.38,170.75,94,171.29Z" style="fill:#fff;opacity:0.5"></path><g style="opacity:0.5"><path d="M111.35,174.87a42.51,42.51,0,0,1-7.65,20.95.28.28,0,0,1-.16.12l-1.52.55a.32.32,0,0,1-.39-.46,70.28,70.28,0,0,0,8.06-22.18.55.55,0,0,1,1-.21l.57.89A.52.52,0,0,1,111.35,174.87Z" style="fill:#fff"></path></g></g><g id="freepik--character-2--inject-79"><polygon points="336.85 397.17 335.51 409.65 328.7 408.94 329.37 395.33 336.85 397.17" style="fill:#dd8c6a"></polygon><path d="M325.48,409.07a3,3,0,0,1-2-.68.62.62,0,0,1,.06-.71.87.87,0,0,1,.55-.34c1.17-.24,3.48,1.32,3.58,1.39a.14.14,0,0,1,.07.17.18.18,0,0,1-.14.13A12.63,12.63,0,0,1,325.48,409.07Zm-1-1.43a1.08,1.08,0,0,0-.31,0,.43.43,0,0,0-.34.21c-.14.19-.1.29-.06.35.29.47,2,.61,3.32.55A7.59,7.59,0,0,0,324.48,407.64Z" style="fill:#FC408B"></path><path d="M327.58,409a.09.09,0,0,1-.07,0c-.79-.43-2.34-2.05-2.14-2.81,0-.19.19-.4.64-.42a1.24,1.24,0,0,1,.89.35,4.66,4.66,0,0,1,.88,2.75.15.15,0,0,1-.09.14A.11.11,0,0,1,327.58,409Zm-1.48-2.92H326c-.3,0-.33.12-.34.16-.08.46.92,1.71,1.74,2.28a3.81,3.81,0,0,0-.76-2.18.83.83,0,0,0-.55-.25Z" style="fill:#FC408B"></path><path d="M328.38,408.11l7.54.55a.62.62,0,0,1,.56.52l.91,6.23a1,1,0,0,1-.85,1.16h-.21c-2.71-.25-5.12-.58-8.5-.82-4-.29-3,.26-7.71,0-2.83-.17-3.12-3.42-1.9-3.49,5.53-.29,6.22-1.9,8.49-3.71A2.41,2.41,0,0,1,328.38,408.11Z" style="fill:#263238"></path><polygon points="329 402.88 334.08 402.68 336.17 403.55 334.39 406.07 328.84 405.77 329 402.88" style="opacity:0.2"></polygon><path d="M353.92,271.42l-12.07,73-4,61.23-10.22-1.26s-1.8-30.63-.09-62.79c1.55-29.05,6.58-59.36,7.31-69.05l3.78-6.69,7.53.93Z" style="fill:#FC408B"></path><path d="M400.16,399.85,395,402.52s-1.19-2.08-3.09-5.47c-.43-.75-.89-1.57-1.38-2.44l6.22-2.72.08,0,.18.41c.31.74.6,1.43.88,2.07C399.28,397.73,400.16,399.85,400.16,399.85Z" style="fill:#dd8c6a"></path><path d="M391.22,402.34a3,3,0,0,1-2.08.36.62.62,0,0,1-.28-.66.84.84,0,0,1,.31-.56c.93-.77,3.7-.51,3.82-.49a.16.16,0,0,1,.15.12.2.2,0,0,1-.07.18A13.53,13.53,0,0,1,391.22,402.34Zm-1.56-.78a1,1,0,0,0-.27.17.44.44,0,0,0-.2.34c0,.24.05.31.11.34.48.28,2.08-.43,3.19-1.11A7.73,7.73,0,0,0,389.66,401.56Z" style="fill:#FC408B"></path><path d="M393.05,401.29a.11.11,0,0,1-.07,0c-.91,0-3.05-.68-3.23-1.45-.06-.18,0-.45.36-.68a1.26,1.26,0,0,1,.95-.12c1.11.3,2.05,1.93,2.09,2a.14.14,0,0,1,0,.16A.12.12,0,0,1,393.05,401.29Zm-2.71-1.86-.09,0c-.26.15-.22.26-.22.31.16.44,1.64,1.07,2.63,1.18a3.85,3.85,0,0,0-1.71-1.56.86.86,0,0,0-.61,0Z" style="fill:#FC408B"></path><path d="M393.76,400l5.46-2.53a.61.61,0,0,1,.74.19l3.78,5.05a1,1,0,0,1-.19,1.42.72.72,0,0,1-.19.11c-2.5,1.08-3.34,1.36-6.43,2.76-3.66,1.65-2.53,1.67-6.8,3.67-2.58,1.21-4.38-1.52-3.35-2.16C391.52,405.59,393.2,400.21,393.76,400Z" style="fill:#263238"></path><path d="M397.84,394.33l-6,2.72c-.43-.75-.89-1.57-1.38-2.44l6.22-2.72.26.37C397.27,393,397.56,393.69,397.84,394.33Z" style="opacity:0.2"></path><path d="M342.7,271s12.6,61.16,18.63,75.8c5.36,13,29.13,49.58,29.13,49.58l7.42-3.7s-8.25-23.36-16.18-38.37c-2.77-5.23-5.65-9.25-6.88-12.07-1.63-3.73-1.13-65.44-10.38-71.53Z" style="fill:#FC408B"></path><path d="M348.51,302.48l-4.16,26.16c-1.08-15,1-38.08,1-38.08Z" style="opacity:0.2"></path><path d="M333.78,262.34a44.55,44.55,0,0,0,.21-7.87c-2.13-24.95-2.16-27.39-1.95-31.78a1.92,1.92,0,0,1,1.3-1.73c17.25-5.91,32.32-3.13,36.22-.94,5.2,2.92,3.13,6,3.07,6.95-.49,7.4-5.26,22.05-5.33,34,0,1.76.18,6,.3,8.34a1.93,1.93,0,0,1-1.53,2c-3.88.81-22.49,1-25.68.94a62.83,62.83,0,0,1-6.32-.45,1.93,1.93,0,0,1-1.62-2.32C332.92,267.34,333.64,263.9,333.78,262.34Z" style="fill:#263238"></path><path d="M355,207.18c-.65,3.87-1.26,9.53,1.51,12,0,0,0,3.94-10.84,8.47-4.08-5.53-1.19-8.15-1.19-8.15,4.29-1.14,4.12-2.89,3.3-5.86Z" style="fill:#dd8c6a"></path><path d="M352.08,209.79l-4.24,3.87a12.63,12.63,0,0,1,.42,2.12c1.65-.28,4.2-1.74,4.5-3.54A5.16,5.16,0,0,0,352.08,209.79Z" style="opacity:0.2;isolation:isolate"></path><path d="M359.87,200.44c-1.56,6.36-2.09,9.08-5.94,11.78-5.8,4.08-13.27.76-13.64-5.94-.32-6,2.3-15.46,9.07-16.83a8.94,8.94,0,0,1,10.51,11Z" style="fill:#dd8c6a"></path><path d="M348.84,199.63c-.1.52-.45.9-.79.84s-.54-.54-.45-1.06.45-.9.79-.84S348.91,199.13,348.84,199.63Z" style="fill:#263238"></path><path d="M343,198.62c-.1.53-.45.9-.79.84s-.55-.55-.46-1.07.46-.9.8-.83S343.06,198.1,343,198.62Z" style="fill:#263238"></path><path d="M346.85,206.73a5.16,5.16,0,0,1-.79-.09.16.16,0,0,1-.13-.17h0a.18.18,0,0,1,.19-.12,4.23,4.23,0,0,0,3.68-1,.16.16,0,0,1,.23.22A4.37,4.37,0,0,1,346.85,206.73Z" style="fill:#263238"></path><path d="M351.62,198.83a.3.3,0,0,1-.32-.17,3.73,3.73,0,0,0-2.48-1.62.31.31,0,1,1,.08-.62h0a4.29,4.29,0,0,1,2.95,2,.31.31,0,0,1-.14.41h0A.12.12,0,0,1,351.62,198.83Z" style="fill:#263238"></path><path d="M341.93,196.59a.31.31,0,0,1-.3-.1.31.31,0,0,1,0-.44,3.06,3.06,0,0,1,2.76-.83.3.3,0,0,1,.23.35v0a.3.3,0,0,1-.37.22h0a2.53,2.53,0,0,0-2.16.68A.26.26,0,0,1,341.93,196.59Z" style="fill:#263238"></path><path d="M357.94,217.36l-1.13-.19-6.33,3.46-2,.08-3.76-3.19-1.25.3h0a22.21,22.21,0,0,0-.64,11.21L345,239.7l2.24,11.67h0l.47-1.07,1.76-4,2.41-4.59,4.39-11.23,1.24-4.62a19.38,19.38,0,0,0,.37-8.47Z" style="fill:#263238"></path><path d="M351.11,220.71c-6.78.08-7.54-2.42-7.54-2.42v-.59s-2,3.85,3.85,4.52,9.8-2.12,10.63-3.8h0C357.4,219.31,355.65,220.66,351.11,220.71Z" style="opacity:0.1"></path><path d="M359.82,207c1.73-1.36,1.53-3.65,2.55-5.59,1.77-3.37,0-4.77,0-4.77,1.5-2.09.25-5-2.59-4.69a14.79,14.79,0,0,0-3.61-4.42,7.53,7.53,0,0,0-9.05.53,1.88,1.88,0,1,0-2.09,3.06,7.82,7.82,0,0,0,3.84,2.78c2,.72,5.51.89,7.63,1.3a43.11,43.11,0,0,1-.71,5.17,42.35,42.35,0,0,0,0,10.34C357.24,209.54,359.57,208.78,359.82,207Z" style="fill:#263238"></path><path d="M359.61,205a4.36,4.36,0,0,1-2.65,2.06c-1.49.4-2.22-.94-1.79-2.36.39-1.26,1.64-3,3.14-2.79a2,2,0,0,1,1.3,3.09Z" style="fill:#dd8c6a"></path><path d="M356.75,200.49l-4.34-.73c-.37-1.11-1.93-1.37-2.59-1.49s-2.35-.39-3,.68l-1.51-.26c-.28-1.22-1.94-1.51-2.63-1.62s-3-.5-3.27,1.34a3,3,0,0,0,5.91,1c0-.11,0-.2,0-.3l1.29.22a2.46,2.46,0,0,0-.07.29,3,3,0,0,0,5.91,1,2,2,0,0,0,0-.42l4.2.71a2.48,2.48,0,0,1,1.48.83l.3-.27A2.91,2.91,0,0,0,356.75,200.49Zm-14.78.66a2.43,2.43,0,0,1-2.17-2.67c.17-1,1-1.31,2.79-1s2.48.86,2.31,1.87A2.45,2.45,0,0,1,342,201.15Zm7.16,1.21a2.45,2.45,0,0,1-2.17-2.67c.17-1,1-1.31,2.79-1s2.47.86,2.3,1.87A2.44,2.44,0,0,1,349.13,202.36Z" style="fill:#fff"></path><path d="M343.59,216.11l0,2.5s.76,2.5,7.54,2.43,7.35-3.07,7.35-3.07l0-1.81A2.08,2.08,0,0,0,356,214.1a32.56,32.56,0,0,1-10.11,0A2.08,2.08,0,0,0,343.59,216.11Z" style="fill:#263238"></path><path d="M345.39,199.41a18.58,18.58,0,0,1-3.2,3.87,3,3,0,0,0,2.33.88Z" style="fill:#f84a35"></path><path d="M301,209.79a6.5,6.5,0,0,0-3.55-5.32s-.51-3.72-2.54-4.53-4.84,3.64-4.84,3.64.62,5.18,4.58,6.49l4.3,2.4Z" style="fill:#dd8c6a"></path><path d="M303.17,211.68,302,208.81a10,10,0,0,0-6.09,4l2.76,2.28Z" style="fill:#FC408B"></path><path d="M303.14,211.09a54.34,54.34,0,0,0,14.7,13.47,49.87,49.87,0,0,1,20.38-3.45l-3.85,8.77s-13,4.54-19.37,2.91c-5-1.29-13.69-13.1-17.08-17.95A14.14,14.14,0,0,1,303.14,211.09Z" style="fill:#263238"></path><path d="M383.78,261.56a6.49,6.49,0,0,0-.56,6.37s-1.94,3.22-.86,5.12,6.05.2,6.05.2,2.76-4.44.5-7.93l-1.85-4.57Z" style="fill:#dd8c6a"></path><path d="M383.28,258.73l-.88,3a9.94,9.94,0,0,0,7.26.67l-.72-3.5Z" style="fill:#FC408B"></path><path d="M382.93,259.21a54.44,54.44,0,0,0-3-19.71s-13.3-7.91-17.4-12.16a5.07,5.07,0,0,1,1.3-8h0a5.09,5.09,0,0,1,5.31.38c4.85,3.51,15.19,11.21,18.16,15.17,3.1,4.15,2.46,18.78,2.06,24.69A14.22,14.22,0,0,1,382.93,259.21Z" style="fill:#263238"></path><path d="M382.93,259.21a54.44,54.44,0,0,0-3-19.71s-13.3-7.91-17.4-12.16a5.07,5.07,0,0,1,1.3-8h0a5.09,5.09,0,0,1,5.31.38c4.85,3.51,15.19,11.21,18.16,15.17,3.1,4.15,2.46,18.78,2.06,24.69A14.22,14.22,0,0,1,382.93,259.21Z" style="fill:#263238"></path></g><g id="freepik--character-1--inject-79"><polygon points="162.55 297.33 169.18 329.02 157.64 329.61 162.55 297.33" style="fill:#FC408B"></polygon><polygon points="162.55 297.33 169.18 329.02 157.64 329.61 162.55 297.33" style="fill:#fff;opacity:0.6000000000000001"></polygon><polygon points="179.61 395.42 179.22 408.97 172.93 408.91 172.25 394.73 179.61 395.42" style="fill:#ffb573"></polygon><polygon points="172.68 403.65 172.51 400.3 179.48 400.09 179.37 403.71 172.68 403.65" style="opacity:0.1"></polygon><path d="M180.4,408.69a.2.2,0,0,1-.13-.15.18.18,0,0,1,.08-.18c.1-.07,2.47-1.55,3.61-1.2a.86.86,0,0,1,.52.42.7.7,0,0,1,0,.77c-.27.4-1.15.57-2,.56A11.52,11.52,0,0,1,180.4,408.69Zm.53-.24c1.27.18,3,.18,3.31-.31,0-.06.08-.17,0-.39a.5.5,0,0,0-.32-.25,1.1,1.1,0,0,0-.31,0A6.89,6.89,0,0,0,180.93,408.45Z" style="fill:#FC408B"></path><path d="M180.32,408.68a.21.21,0,0,1-.08-.16c0-.1.17-2.12,1-2.9a1.11,1.11,0,0,1,.9-.29c.45.05.59.29.61.5.15.84-1.47,2.46-2.28,2.85h-.07A.14.14,0,0,1,180.32,408.68Zm1.75-3a.82.82,0,0,0-.56.22,4.3,4.3,0,0,0-.88,2.29c.84-.54,1.9-1.81,1.85-2.32,0,0,0-.17-.32-.2Z" style="fill:#FC408B"></path><path d="M179.7,407.64l-7.46,0a.62.62,0,0,0-.59.51l-1.33,6.69a1.12,1.12,0,0,0,.76,1.33l.21,0c2.71,0,5.12-.19,8.49-.17,4,0,3,.54,7.65.64,2.81.05,3.26-3.47,2.07-3.65-5.46-.78-6.05-2.6-8.18-4.74A2.27,2.27,0,0,0,179.7,407.64Z" style="fill:#263238"></path><polygon points="147.04 393.11 143.44 406.08 137.38 404.42 140.08 390.58 147.04 393.11" style="fill:#ffb573"></polygon><polygon points="144.76 401.3 138.29 399.73 139.32 394.45 146.25 395.96 144.76 401.3" style="opacity:0.1"></polygon><path d="M144.41,406.67a.16.16,0,0,1-.11-.16.18.18,0,0,1,.11-.17c.12,0,2.71-1,3.77-.48a.88.88,0,0,1,.43.51.73.73,0,0,1-.12.76,2.67,2.67,0,0,1-2.07.16A10.16,10.16,0,0,1,144.41,406.67Zm.55-.13c1.22.42,2.91.75,3.31.33,0-.05.11-.14,0-.39a.45.45,0,0,0-.27-.3,1,1,0,0,0-.29-.11A7.17,7.17,0,0,0,145,406.54Z" style="fill:#FC408B"></path><path d="M144.32,406.65a.21.21,0,0,1,0-.17c0-.09.56-2,1.55-2.64a1.09,1.09,0,0,1,.93-.12c.43.13.52.4.5.61,0,.85-1.89,2.12-2.76,2.35h-.07A.23.23,0,0,1,144.32,406.65ZM146.6,404a.78.78,0,0,0-.59.11,4.26,4.26,0,0,0-1.29,2.07c.93-.37,2.2-1.41,2.25-1.91,0-.05,0-.18-.28-.26Z" style="fill:#FC408B"></path><path d="M143.91,405.51l-7.3-1.46a.59.59,0,0,0-.67.39l-2.53,6.28a1.13,1.13,0,0,0,.49,1.45l.2.07c2.66.48,5,.79,8.34,1.46,3.89.79,2.81,1.1,7.39,2.1,2.76.6,3.86-2.77,2.72-3.18-5.23-1.81-5.47-3.7-7.16-6.21A2.3,2.3,0,0,0,143.91,405.51Z" style="fill:#263238"></path><path d="M174.88,278.49s7,53.35,7.74,70.36c.56,13.32-.2,49.52-.2,49.52l-11.25-.11-.23-4.65A552.45,552.45,0,0,0,159,303.07l-5-23.24Z" style="fill:#FC408B"></path><path d="M174.88,278.49s7,53.35,7.74,70.36c.56,13.32-.2,49.52-.2,49.52l-11.25-.11-.23-4.65A552.45,552.45,0,0,0,159,303.07l-5-23.24Z" style="fill:#263238"></path><path d="M159.6,313.13l4.65-21.94.69,2.82a107.24,107.24,0,0,1,1.94,41l-.85,5.77C165.36,337.7,162.31,321,159.6,313.13Z" style="opacity:0.1"></path><path d="M167.43,278.66s-3.72,64.94-5.63,74.91c-2.23,11.73-14.48,42.62-14.48,42.62l-8.68-2.35s3.77-23.88,6.1-38.07c2-12.08,2.64-32.8,3.12-46.38,0,0-3-22.54-1-28.36Z" style="fill:#263238"></path><path d="M167.43,278.66s-3.72,64.94-5.63,74.91c-2.23,11.73-14.48,42.62-14.48,42.62l-8.68-2.35s3.77-23.88,6.1-38.07c2-12.08,2.64-32.8,3.12-46.38,0,0-3-22.54-1-28.36Z" style="fill:#263238"></path><polygon points="150.79 394.39 148.41 399.43 136.13 395.74 136.72 391.28 150.79 394.39" style="fill:#FC408B"></polygon><polygon points="183.6 395.8 183.23 401.31 169.54 401.05 169.16 395.89 183.6 395.8" style="fill:#FC408B"></polygon><path d="M199.66,214l2.21-3.84,4.5-3.19a2.55,2.55,0,0,0,1-2.51l-.52-3.13a2.61,2.61,0,0,0-2.81-2.16l-1.12.11a2.53,2.53,0,0,0-2.27,2.18h0a2.51,2.51,0,0,1-.77,1.5l-.62.6a2.54,2.54,0,0,0-.79,2l.13,1.62-2.69,4.52Z" style="fill:#ffb573"></path><polygon points="200.77 213.93 201.95 211.64 196.76 208.43 195.64 211.03 200.77 213.93" style="fill:#263238"></polygon><polygon points="200.77 213.93 201.95 211.64 196.76 208.43 195.64 211.03 200.77 213.93" style="fill:#fff;opacity:0.7000000000000001"></polygon><path d="M164.35,228.66l8.41.14a28.37,28.37,0,0,0,19.72-14l3.08-5.45,6.37,4.32-6.55,12.27a15.62,15.62,0,0,1-10.7,8.32l-18.54,4.89Z" style="fill:#263238"></path><path d="M164.35,228.66l8.41.14a28.37,28.37,0,0,0,19.72-14l3.08-5.45,6.37,4.32-6.55,12.27a15.62,15.62,0,0,1-10.7,8.32l-18.54,4.89Z" style="fill:#fff;opacity:0.5"></path><polygon points="185.77 233.85 166.99 239.02 166.8 237.2 170.06 236.46 185.77 233.85" style="opacity:0.2"></polygon><path d="M174.38,238.65l2,40.93h0c-8.86,2.72-13.84,2.77-27.42,2.78l-3.15-.3-5.5-42.6a5.47,5.47,0,0,1,4.15-6l19.75-4.89,5.1.74C172.66,228.5,174.22,235.2,174.38,238.65Z" style="fill:#fff"></path><path d="M121.67,280.23l-3.65,3s-3.63,1.13-4.09,3.27c-.28,1.3,1.38,2.56,2.74,3.35a3.53,3.53,0,0,0,3.42.07c1.51-.82,3.1-3.6,3.1-3.6l2-3.93Z" style="fill:#ffb573"></path><path d="M121.69,280.23c.19-.33,4.48-6.3,4.48-6.3l3.33,2.21-5.12,7.43S120.26,282.76,121.69,280.23Z" style="fill:#ffb573"></path><polygon points="122.17 277.96 121.07 279.86 125.67 283.09 127.15 280.75 122.17 277.96"></polygon><polygon points="122.17 277.96 121.07 279.86 125.67 283.09 127.15 280.75 122.17 277.96" style="fill:#fff;opacity:0.7000000000000001"></polygon><path d="M139.31,238.27l-6.85,24.3L121.21,278l6.05,3.73,14.49-16.07,7.77-23.13s.17-9.93-5.69-8.53A6.51,6.51,0,0,0,139.31,238.27Z" style="fill:#263238"></path><path d="M139.31,238.27l-6.85,24.3L121.21,278l6.05,3.73,14.49-16.07,7.77-23.13s.17-9.93-5.69-8.53A6.51,6.51,0,0,0,139.31,238.27Z" style="fill:#fff;opacity:0.5"></path><polygon points="141.75 265.64 142.17 264.4 142.3 250.19 138.93 268.77 141.75 265.64" style="opacity:0.2"></polygon><path d="M151.65,283.11c0,.54,0,1.08,0,1.64v0c0,.82-.05,1.67-.07,2.53l-10.22-.09q.24-2.94.4-5.89c0-.11,0-.21,0-.32q.12-2,.18-4a235.07,235.07,0,0,0-1.64-37.59,5.74,5.74,0,0,1,0-.71,5.49,5.49,0,0,1,4.19-5.26l6.28-1.56s.29,8.31.56,18,.55,20.77.51,26.31C151.76,278.11,151.72,280.45,151.65,283.11Z" style="fill:#263238"></path><path d="M151.65,283.11c0,.54,0,1.08,0,1.64v0c0,.82-.05,1.67-.07,2.53l-10.22-.09q.24-2.94.4-5.89c0-.11,0-.21,0-.32q.12-2,.18-4a235.07,235.07,0,0,0-1.64-37.59,5.74,5.74,0,0,1,0-.71,5.49,5.49,0,0,1,4.19-5.26l6.28-1.56s.29,8.31.56,18,.55,20.77.51,26.31C151.76,278.11,151.72,280.45,151.65,283.11Z" style="fill:#fff;opacity:0.5"></path><path d="M178.48,283l-9.3,2.08-5-56.52,5.1.74c3.39-.84,4.95,5.86,5.12,9.31l.6,13.43c0,.65.06,1.29.1,1.95,0,.48.06,1,.08,1.46.06.83.11,1.67.17,2.5,0,.62.09,1.24.14,1.86.2,2.6.45,5.18.74,7.77s.62,5,1,7.56c0,.12,0,.25,0,.38.35,2.41.75,4.8,1.18,7.2C178.45,282.85,178.47,282.94,178.48,283Z" style="fill:#263238"></path><g style="opacity:0.5"><path d="M178.48,283l-9.3,2.08-5-56.52,5.1.74c3.39-.84,4.95,5.86,5.12,9.31l.6,13.43c0,.65.06,1.29.1,1.95,0,.48.06,1,.08,1.46.06.83.11,1.67.17,2.5,0,.62.09,1.24.14,1.86.2,2.6.45,5.18.74,7.77s.62,5,1,7.56c0,.12,0,.25,0,.38.35,2.41.75,4.8,1.18,7.2C178.45,282.85,178.47,282.94,178.48,283Z" style="fill:#fff"></path></g><polygon points="162.9 232.98 159.63 238.11 154.22 234.77 155.44 232.91 161.31 232.04 162.9 232.98" style="fill:#263238"></polygon><polygon points="162.9 232.98 159.63 238.11 154.22 234.77 155.44 232.91 161.31 232.04 162.9 232.98" style="fill:#fff;opacity:0.5"></polygon><path d="M162.92,208.4s-.25-6.47-5.57-3.44Z" style="fill:#263238"></path><path d="M162.92,208.4s-.25-6.47-5.57-3.44Z" style="fill:#fff;opacity:0.7000000000000001"></path><path d="M162.06,231.54l-1.74,2.15-2.92.43-4.71-1.45a1.42,1.42,0,0,1,.07-.22c1.27-3.29-.19-9-1.31-12.27l8.17,5.21C159.36,227.76,159.78,230.32,162.06,231.54Z" style="fill:#ffb573"></path><path d="M156.47,224.54s1.55.35,3.15.87a8.48,8.48,0,0,0,.23,3.34,7.1,7.1,0,0,1-7.09-3.75c-.1-.51-.21-1-.33-1.48Z" style="opacity:0.1"></path><path d="M148.86,214.25c1.45,5.28,2,8.45,5.34,10.63,5,3.3,11.14-.53,11.31-6.12.15-5.07-2.24-12.83-8-13.88a7.53,7.53,0,0,0-8.82,5.94A7.37,7.37,0,0,0,148.86,214.25Z" style="fill:#ffb573"></path><path d="M164.52,210.16c0-.4-.21-1.28-1.18-.94,0,0-.84-1-1.54-.07,0,0-1.16,0-1.12.73,0,1,.91.19,2.07.47S164.49,210.85,164.52,210.16Z" style="fill:#263238"></path><path d="M164.52,210.16c0-.4-.21-1.28-1.18-.94,0,0-.84-1-1.54-.07,0,0-1.16,0-1.12.73,0,1,.91.19,2.07.47S164.49,210.85,164.52,210.16Z" style="fill:#fff;opacity:0.6000000000000001"></path><path d="M155.23,212.26c-.21-.33-.46-1.21.55-1.39,0,0,.22-1.3,1.31-.83,0,0,1-.59,1.33.08.44.86-.69.62-1.56,1.43S155.6,212.84,155.23,212.26Z" style="fill:#263238"></path><path d="M155.23,212.26c-.21-.33-.46-1.21.55-1.39,0,0,.22-1.3,1.31-.83,0,0,1-.59,1.33.08.44.86-.69.62-1.56,1.43S155.6,212.84,155.23,212.26Z" style="fill:#fff;opacity:0.6000000000000001"></path><path d="M161.61,213a15.91,15.91,0,0,0,3.15,3,2.64,2.64,0,0,1-1.95,1Z" style="fill:#ed893e"></path><path d="M155.72,202.22c-1.59-.53-5.36.08-6.21,1.52a5.25,5.25,0,0,0-5.24,3.73c-.23,1.12.14,2.53,1.22,2.89a12.34,12.34,0,0,0-2.39,2,3.72,3.72,0,0,0-1,2.75,2.27,2.27,0,0,0,1.88,2,9.15,9.15,0,0,0-1,2.61,3.58,3.58,0,0,0,.53,2.89,2.16,2.16,0,0,0,2.7.62l.62,0a1.12,1.12,0,0,0,2,.93c.32-.41.49-1.12,1-1.06.14.62.28,1.48.9,1.64a1.8,1.8,0,0,0,1.75-.52c-.7-1.93,1.37-4.8.67-6.74a18.45,18.45,0,0,1-1.22-4.65c-.13-1.61-2.48-2.56-1.42-3.77a3.5,3.5,0,0,1,4.21-1c0-1.16.65-1.11.65-1.11a1.7,1.7,0,0,1,1.69.19c-.15-.34.34-.87.91-.1.08-.17-.11-.48.16-.59s.4.12.68.2C158.71,206.34,157.32,202.74,155.72,202.22Z" style="fill:#263238"></path><path d="M155.72,202.22c-1.59-.53-5.36.08-6.21,1.52a5.25,5.25,0,0,0-5.24,3.73c-.23,1.12.14,2.53,1.22,2.89a12.34,12.34,0,0,0-2.39,2,3.72,3.72,0,0,0-1,2.75,2.27,2.27,0,0,0,1.88,2,9.15,9.15,0,0,0-1,2.61,3.58,3.58,0,0,0,.53,2.89,2.16,2.16,0,0,0,2.7.62l.62,0a1.12,1.12,0,0,0,2,.93c.32-.41.49-1.12,1-1.06.14.62.28,1.48.9,1.64a1.8,1.8,0,0,0,1.75-.52c-.7-1.93,1.37-4.8.67-6.74a18.45,18.45,0,0,1-1.22-4.65c-.13-1.61-2.48-2.56-1.42-3.77a3.5,3.5,0,0,1,4.21-1c0-1.16.65-1.11.65-1.11a1.7,1.7,0,0,1,1.69.19c-.15-.34.34-.87.91-.1.08-.17-.11-.48.16-.59s.4.12.68.2C158.71,206.34,157.32,202.74,155.72,202.22Z" style="fill:#fff;opacity:0.7000000000000001"></path><path d="M163.93,217c-1.61-.2-4.13.12-7.66,2.34a2.9,2.9,0,0,1-3-1.65l-.88-1.43-1.18.63-.26,4.51s1.69,4.35,3.06,4.36a4.06,4.06,0,0,0,4.21,1.12s4.89,1,5.43-1.37c0,0,2.71,1.28,2-2.43,0,0,.47-.73.5-3.61A2.48,2.48,0,0,0,163.93,217Z" style="fill:#263238"></path><g style="opacity:0.7000000000000001"><path d="M163.93,217c-1.61-.2-4.13.12-7.66,2.34a2.9,2.9,0,0,1-3-1.65l-.88-1.43-1.18.63-.26,4.51s1.69,4.35,3.06,4.36a4.06,4.06,0,0,0,4.21,1.12s4.89,1,5.43-1.37c0,0,2.71,1.28,2-2.43,0,0,.47-.73.5-3.61A2.48,2.48,0,0,0,163.93,217Z" style="fill:#fff"></path></g><path d="M164.2,219.57a2.6,2.6,0,0,1-1.4-1,.72.72,0,0,1-.9.55,4.22,4.22,0,0,1-1.08,1,1.39,1.39,0,0,1-1.43,0,1.77,1.77,0,0,0,1.42.72,2,2,0,0,0,1.56-.76.76.76,0,0,0,1.08-.22,1.09,1.09,0,0,0,1.49-.06c-.1.11-.33,0-.46,0A.44.44,0,0,1,164.2,219.57Z" style="opacity:0.1"></path><path d="M158.7,212.61c.11.43,0,.83-.3.9s-.59-.22-.71-.64,0-.83.31-.9S158.58,212.21,158.7,212.61Z" style="fill:#263238"></path><path d="M163.71,211.74c.11.43,0,.83-.3.9s-.6-.21-.71-.64,0-.82.31-.9S163.58,211.35,163.71,211.74Z" style="fill:#263238"></path><polygon points="165.28 228.39 162.03 227.9 158.01 232 150.26 230.15 148.34 232.44 155.72 237 158.29 233.16 162.41 235.56 165.28 228.39" style="fill:#263238"></polygon><polygon points="165.28 228.39 162.03 227.9 158.01 232 150.26 230.15 148.34 232.44 155.72 237 158.29 233.16 162.41 235.56 165.28 228.39" style="fill:#fff;opacity:0.7000000000000001"></polygon><line x1="139.15" y1="269.04" x2="142.17" y2="265.09" style="opacity:0.2"></line><rect x="108.02" y="279.18" width="15.04" height="22.35" transform="translate(-180.89 191.42) rotate(-49.85)" style="fill:#FC408B"></rect><rect x="108.02" y="279.18" width="15.04" height="22.35" transform="translate(-180.89 191.42) rotate(-49.85)" style="opacity:0.2"></rect><rect x="106.61" y="280.84" width="15.04" height="22.35" transform="translate(-182.66 190.94) rotate(-49.85)" style="fill:#FC408B"></rect><rect x="106.61" y="280.84" width="15.04" height="22.35" transform="translate(-182.66 190.94) rotate(-49.85)" style="opacity:0.2"></rect><rect x="104.2" y="285.48" width="9.14" height="3.78" rx="0.91" transform="translate(-181.01 185.19) rotate(-49.85)" style="fill:#fff"></rect><polygon points="128.33 291.84 127.51 292.86 111.08 278.99 111.82 278.08 128.33 291.84" style="fill:#fff"></polygon><polygon points="111.58 285.47 107.75 290.12 107.27 289.71 111.16 285.11 111.58 285.47" style="fill:#263238"></polygon><path d="M148.92,216.1l.31.25c.33-.46,1.41-1.84,2-2l3.93-.94a2.12,2.12,0,0,0,0,.42,2.72,2.72,0,0,0,3.35,1.95,2.83,2.83,0,0,0,2.18-3.28,2.29,2.29,0,0,0-.08-.28l1.21-.29c0,.09,0,.19,0,.29a2.71,2.71,0,0,0,3.35,1.95,2.84,2.84,0,0,0,2.18-3.29c-.4-1.82-2.41-1.33-3.17-1.15s-2.2.53-2.39,1.77l-1.41.34c-.7-1-2.25-.65-2.9-.5s-2.08.51-2.36,1.64l-4.06,1C150.47,214.13,149.31,215.57,148.92,216.1Zm13.31-3.94c-.22-1,.4-1.6,2.07-2s2.48-.15,2.7.85a2.42,2.42,0,0,1-1.89,2.79A2.32,2.32,0,0,1,162.23,212.16Zm-6.7,1.61c-.22-1,.4-1.59,2.07-2s2.48-.15,2.7.85a2.41,2.41,0,0,1-1.89,2.79A2.32,2.32,0,0,1,155.53,213.77Z" style="fill:#263238"></path></g><g id="freepik--light-bulb--inject-79"><path d="M318.42,153.08a69,69,0,0,0-138,.81c.16,27.65,22.27,46.24,36.31,68.05,4.35,6.75,4,32.11,4,32.11l58.55-.34s-.62-25.35,3.64-32.16C296.69,199.58,318.58,180.73,318.42,153.08Z" style="fill:#FC408B"></path><path d="M318.42,153.08a69,69,0,0,0-138,.81c.16,27.65,22.27,46.24,36.31,68.05,4.35,6.75,4,32.11,4,32.11l58.55-.34s-.62-25.35,3.64-32.16C296.69,199.58,318.58,180.73,318.42,153.08Z" style="fill:#fff;opacity:0.5"></path><path d="M310.22,140.33c0,43.44-27.12,92.7-60.68,92.73s-60.82-55-60.85-92.62c0-23.18,27.17-42,60.73-42S310.2,117.15,310.22,140.33Z" style="fill:#fff;opacity:0.30000000000000004"></path><path d="M288.86,182.65a39.13,39.13,0,1,1-39.16-39.09A39.12,39.12,0,0,1,288.86,182.65Z" style="fill:#fff;opacity:0.4"></path><path d="M276.92,192.55c0,15.18-12.29,19.8-27.47,19.82S222,207.78,222,192.6,234.24,173,249.42,173,276.91,177.37,276.92,192.55Z" style="fill:#fff;opacity:0.4"></path><polygon points="265.73 304.59 232.81 304.59 223.67 292.63 274.88 292.63 265.73 304.59" style="fill:#FC408B"></polygon><polygon points="265.73 304.59 232.81 304.59 223.67 292.63 274.88 292.63 265.73 304.59" style="fill:#fff;opacity:0.5"></polygon><path d="M217.75,245.81h0a2.17,2.17,0,0,1,2.16-2.18l58.51-.3a2.17,2.17,0,0,1,2.18,2.15h0a2.16,2.16,0,0,1-2.16,2.18l-58.51.31A2.17,2.17,0,0,1,217.75,245.81Z" style="fill:#FC408B"></path><path d="M285.79,254.9a8,8,0,0,1-8,8l-8.12,0a7.67,7.67,0,0,1-1.81.22L221,263.2a8,8,0,0,1-.2-15.95h8.3a7.28,7.28,0,0,1,1.63-.22h.18l46.89-.08A8,8,0,0,1,285.79,254.9Z" style="fill:#FC408B"></path><path d="M285.79,254.9a8,8,0,0,1-8,8l-8.12,0a7.67,7.67,0,0,1-1.81.22L221,263.2a8,8,0,0,1-.2-15.95h8.3a7.28,7.28,0,0,1,1.63-.22h.18l46.89-.08A8,8,0,0,1,285.79,254.9Z" style="fill:#FC408B"></path><g style="opacity:0.2"><path d="M285.79,254.9a8,8,0,0,1-8,8l-8.12,0a7.67,7.67,0,0,1-1.81.22L221,263.2a8,8,0,0,1-.2-15.95h8.3a7.28,7.28,0,0,1,1.63-.22h.18l46.89-.08A8,8,0,0,1,285.79,254.9Z" style="fill:#fff"></path></g><path d="M283,270.45a7.7,7.7,0,0,1-7.41,8h-7.54a6.69,6.69,0,0,1-1.69.22h-43.6a8,8,0,0,1-.22-15.94h7.72a6.88,6.88,0,0,1,1.52-.21h43.77C279.66,262.46,283,266,283,270.45Z" style="fill:#FC408B"></path><path d="M283,270.45a7.7,7.7,0,0,1-7.41,8h-7.54a6.69,6.69,0,0,1-1.69.22h-43.6a8,8,0,0,1-.22-15.94h7.72a6.88,6.88,0,0,1,1.52-.21h43.77C279.66,262.46,283,266,283,270.45Z" style="fill:#fff;opacity:0.30000000000000004"></path><path d="M280.22,285.6c0,4.41-3.05,8-6.83,7.95h-7a5.35,5.35,0,0,1-1.56.21l-40.31-.08c-3.8,0-6.89-3.59-6.91-8s3-7.85,6.68-7.94h7.13a6,6,0,0,1,1.4-.21H233l40.32.08C277.11,277.61,280.2,281.19,280.22,285.6Z" style="fill:#FC408B"></path><path d="M280.22,285.6c0,4.41-3.05,8-6.83,7.95h-7a5.35,5.35,0,0,1-1.56.21l-40.31-.08c-3.8,0-6.89-3.59-6.91-8s3-7.85,6.68-7.94h7.13a6,6,0,0,1,1.4-.21H233l40.32.08C277.11,277.61,280.2,281.19,280.22,285.6Z" style="fill:#fff;opacity:0.4"></path><path d="M222.25,295.81h0a2.17,2.17,0,0,1,2.16-2.19l49.51-.1a2.18,2.18,0,0,1,2.17,2.16h0a2.16,2.16,0,0,1-2.16,2.18l-49.51.1A2.16,2.16,0,0,1,222.25,295.81Z" style="fill:#FC408B"></path></g><g id="freepik--Gears--inject-79"><path d="M237.52,147.56l-4.19,2.33a28.49,28.49,0,0,0,1,3.91l4.79-.08a25.29,25.29,0,0,0,3.36,5.82l-2.46,4.11a29.8,29.8,0,0,0,2.87,2.86l4.11-2.46a24.86,24.86,0,0,0,5.81,3.36l-.08,4.79a28.63,28.63,0,0,0,3.92,1.05l2.33-4.19a24.58,24.58,0,0,0,6.71,0l2.33,4.19A28.63,28.63,0,0,0,272,172.2l-.08-4.79a25.07,25.07,0,0,0,5.81-3.36l4.11,2.46a29.8,29.8,0,0,0,2.87-2.86l-2.47-4.11a25,25,0,0,0,3.37-5.82l4.79.08a30,30,0,0,0,1.05-3.91l-4.2-2.33a24.66,24.66,0,0,0,0-6.72l4.2-2.33a30,30,0,0,0-1.05-3.91l-4.79.08a25.29,25.29,0,0,0-3.36-5.82l2.46-4.11a29.9,29.9,0,0,0-2.87-2.87l-4.11,2.47a25.07,25.07,0,0,0-5.81-3.36l.08-4.8a31.83,31.83,0,0,0-3.92-1l-2.33,4.2a24.58,24.58,0,0,0-6.71,0l-2.33-4.2a31.83,31.83,0,0,0-3.92,1l.08,4.8a24.86,24.86,0,0,0-5.81,3.36l-4.11-2.47a29.9,29.9,0,0,0-2.87,2.87l2.46,4.11a25.29,25.29,0,0,0-3.36,5.82l-4.79-.08a28.49,28.49,0,0,0-1,3.91l4.19,2.33a24.66,24.66,0,0,0,0,6.72Zm11.42-2.76a13.65,13.65,0,1,1,13.64,13.65A13.65,13.65,0,0,1,248.94,144.8Z" style="fill:#263238"></path><path d="M216.39,183.56l-4.63,2.57a21.32,21.32,0,0,0,.57,2.12l5.3-.08a15.62,15.62,0,0,0,1.7,2.94l-2.73,4.54a20.87,20.87,0,0,0,1.56,1.56l4.54-2.73a15.62,15.62,0,0,0,2.94,1.7l-.08,5.3a21.32,21.32,0,0,0,2.12.57l2.57-4.63a16.1,16.1,0,0,0,3.4,0l2.57,4.63a21.51,21.51,0,0,0,2.13-.57l-.09-5.3a15.62,15.62,0,0,0,2.94-1.7l4.54,2.73a19.14,19.14,0,0,0,1.56-1.56l-2.73-4.54a15.62,15.62,0,0,0,1.7-2.94l5.3.08a18.9,18.9,0,0,0,.57-2.12l-4.63-2.57a16.1,16.1,0,0,0,0-3.4l4.63-2.57a19.07,19.07,0,0,0-.57-2.13l-5.3.09a15.62,15.62,0,0,0-1.7-2.94l2.73-4.54a19.14,19.14,0,0,0-1.56-1.56l-4.54,2.73a15.62,15.62,0,0,0-2.94-1.7l.09-5.3a19.07,19.07,0,0,0-2.13-.57l-2.57,4.63a16.1,16.1,0,0,0-3.4,0l-2.57-4.63a18.9,18.9,0,0,0-2.12.57l.08,5.3a15.62,15.62,0,0,0-2.94,1.7l-4.54-2.73a19.14,19.14,0,0,0-1.56,1.56l2.73,4.54a15.62,15.62,0,0,0-1.7,2.94l-5.3-.09a21.51,21.51,0,0,0-.57,2.13l4.63,2.57a16.1,16.1,0,0,0,0,3.4Zm6.31-1.7a9.25,9.25,0,1,1,9.25,9.25A9.25,9.25,0,0,1,222.7,181.86Z" style="fill:#263238"></path><path d="M216.39,183.56l-4.63,2.57a21.32,21.32,0,0,0,.57,2.12l5.3-.08a15.62,15.62,0,0,0,1.7,2.94l-2.73,4.54a20.87,20.87,0,0,0,1.56,1.56l4.54-2.73a15.62,15.62,0,0,0,2.94,1.7l-.08,5.3a21.32,21.32,0,0,0,2.12.57l2.57-4.63a16.1,16.1,0,0,0,3.4,0l2.57,4.63a21.51,21.51,0,0,0,2.13-.57l-.09-5.3a15.62,15.62,0,0,0,2.94-1.7l4.54,2.73a19.14,19.14,0,0,0,1.56-1.56l-2.73-4.54a15.62,15.62,0,0,0,1.7-2.94l5.3.08a18.9,18.9,0,0,0,.57-2.12l-4.63-2.57a16.1,16.1,0,0,0,0-3.4l4.63-2.57a19.07,19.07,0,0,0-.57-2.13l-5.3.09a15.62,15.62,0,0,0-1.7-2.94l2.73-4.54a19.14,19.14,0,0,0-1.56-1.56l-4.54,2.73a15.62,15.62,0,0,0-2.94-1.7l.09-5.3a19.07,19.07,0,0,0-2.13-.57l-2.57,4.63a16.1,16.1,0,0,0-3.4,0l-2.57-4.63a18.9,18.9,0,0,0-2.12.57l.08,5.3a15.62,15.62,0,0,0-2.94,1.7l-4.54-2.73a19.14,19.14,0,0,0-1.56,1.56l2.73,4.54a15.62,15.62,0,0,0-1.7,2.94l-5.3-.09a21.51,21.51,0,0,0-.57,2.13l4.63,2.57a16.1,16.1,0,0,0,0,3.4Zm6.31-1.7a9.25,9.25,0,1,1,9.25,9.25A9.25,9.25,0,0,1,222.7,181.86Z" style="fill:#263238;opacity:0.5"></path></g></svg>